<svg xmlns="http://www.w3.org/2000/svg" xmlns:xlink="http://www.w3.org/1999/xlink" width="500" zoomAndPan="magnify" viewBox="0 0 375 374.999991" height="500" preserveAspectRatio="xMidYMid meet" version="1.0"><defs><g/><clipPath id="1b31a7c2d8"><path d="M 221.222656 160.214844 L 253.011719 160.214844 L 253.011719 199.625 L 221.222656 199.625 Z M 221.222656 160.214844 " clip-rule="nonzero"/></clipPath><clipPath id="bc21dcd94d"><path d="M 227.222656 160.214844 L 247.011719 160.214844 C 248.605469 160.214844 250.128906 160.847656 251.257812 161.972656 C 252.382812 163.097656 253.011719 164.625 253.011719 166.214844 L 253.011719 193.625 C 253.011719 195.214844 252.382812 196.742188 251.257812 197.867188 C 250.128906 198.992188 248.605469 199.625 247.011719 199.625 L 227.222656 199.625 C 225.628906 199.625 224.105469 198.992188 222.980469 197.867188 C 221.855469 196.742188 221.222656 195.214844 221.222656 193.625 L 221.222656 166.214844 C 221.222656 164.625 221.855469 163.097656 222.980469 161.972656 C 224.105469 160.847656 225.628906 160.214844 227.222656 160.214844 Z M 227.222656 160.214844 " clip-rule="nonzero"/></clipPath><clipPath id="53f8e5f0ee"><path d="M 227.003906 180.613281 L 247.101562 180.613281 L 247.101562 194.386719 L 227.003906 194.386719 Z M 227.003906 180.613281 " clip-rule="nonzero"/></clipPath><clipPath id="deb2c0cc5b"><path d="M 227.148438 172.25 L 247.101562 172.25 L 247.101562 177.019531 L 227.148438 177.019531 Z M 227.148438 172.25 " clip-rule="nonzero"/></clipPath><clipPath id="3fe32b49c7"><path d="M 226.539062 210.265625 L 247.601562 210.265625 L 247.601562 231.328125 L 226.539062 231.328125 Z M 226.539062 210.265625 " clip-rule="nonzero"/></clipPath><clipPath id="7d279f8482"><path d="M 237.070312 210.265625 C 231.253906 210.265625 226.539062 214.980469 226.539062 220.796875 C 226.539062 226.613281 231.253906 231.328125 237.070312 231.328125 C 242.886719 231.328125 247.601562 226.613281 247.601562 220.796875 C 247.601562 214.980469 242.886719 210.265625 237.070312 210.265625 Z M 237.070312 210.265625 " clip-rule="nonzero"/></clipPath><clipPath id="2cda6b5fa9"><path d="M 233.238281 195.71875 L 241.042969 195.71875 L 241.042969 217.621094 L 233.238281 217.621094 Z M 233.238281 195.71875 " clip-rule="nonzero"/></clipPath><clipPath id="7eef6677ed"><path d="M 225.09375 213.976562 L 249.433594 213.976562 L 249.433594 227.621094 L 225.09375 227.621094 Z M 225.09375 213.976562 " clip-rule="nonzero"/></clipPath><clipPath id="402faaf364"><path d="M 227.34375 213.976562 L 247.183594 213.976562 C 248.425781 213.976562 249.433594 214.984375 249.433594 216.226562 L 249.433594 225.371094 C 249.433594 226.613281 248.425781 227.621094 247.183594 227.621094 L 227.34375 227.621094 C 226.101562 227.621094 225.09375 226.613281 225.09375 225.371094 L 225.09375 216.226562 C 225.09375 214.984375 226.101562 213.976562 227.34375 213.976562 Z M 227.34375 213.976562 " clip-rule="nonzero"/></clipPath><clipPath id="26b47ba34b"><path d="M 221.222656 160.214844 L 253.023438 160.214844 L 253.023438 168.464844 L 221.222656 168.464844 Z M 221.222656 160.214844 " clip-rule="nonzero"/></clipPath><clipPath id="10d932ba3d"><path d="M 230.320312 214.121094 L 243.820312 214.121094 L 243.820312 227.621094 L 230.320312 227.621094 Z M 230.320312 214.121094 " clip-rule="nonzero"/></clipPath><clipPath id="c0d6b67523"><path d="M 237.070312 214.121094 C 233.34375 214.121094 230.320312 217.144531 230.320312 220.871094 C 230.320312 224.597656 233.34375 227.621094 237.070312 227.621094 C 240.796875 227.621094 243.820312 224.597656 243.820312 220.871094 C 243.820312 217.144531 240.796875 214.121094 237.070312 214.121094 Z M 237.070312 214.121094 " clip-rule="nonzero"/></clipPath><clipPath id="cfd1e6ad14"><path d="M 227.148438 163.730469 L 247.101562 163.730469 L 247.101562 168.5 L 227.148438 168.5 Z M 227.148438 163.730469 " clip-rule="nonzero"/></clipPath><clipPath id="f6452b44d6"><path d="M 234.019531 184.449219 L 240.121094 184.449219 L 240.121094 190.550781 L 234.019531 190.550781 Z M 234.019531 184.449219 " clip-rule="nonzero"/></clipPath><clipPath id="46a12eb981"><path d="M 237.070312 184.449219 C 235.386719 184.449219 234.019531 185.816406 234.019531 187.5 C 234.019531 189.183594 235.386719 190.550781 237.070312 190.550781 C 238.753906 190.550781 240.121094 189.183594 240.121094 187.5 C 240.121094 185.816406 238.753906 184.449219 237.070312 184.449219 Z M 237.070312 184.449219 " clip-rule="nonzero"/></clipPath></defs><g fill="#00a3e0" fill-opacity="1"><g transform="translate(52.391603, 198.474993)"><g><path d="M 12.859375 -17.234375 L 12.859375 -6.5 L 31.609375 -6.5 L 31.609375 0 L 5.109375 0 L 5.109375 -39.265625 L 31.171875 -39.265625 L 31.171875 -32.765625 L 12.859375 -32.765625 L 12.859375 -23.578125 L 28.875 -23.578125 L 28.875 -17.234375 Z M 12.859375 -17.234375 "/></g></g></g><g fill="#00a3e0" fill-opacity="1"><g transform="translate(86.146533, 198.474993)"><g><path d="M 12.21875 0 L 5.109375 0 L 5.109375 -39.265625 L 15.25 -39.265625 L 25.1875 -10.390625 L 25.75 -10.390625 L 35.640625 -39.265625 L 45.546875 -39.265625 L 45.546875 0 L 38.1875 0 L 38.1875 -25.9375 L 37.515625 -26.046875 L 28.4375 0 L 21.96875 0 L 12.890625 -26.046875 L 12.21875 -25.9375 Z M 12.21875 0 "/></g></g></g><g fill="#00a3e0" fill-opacity="1"><g transform="translate(136.819206, 198.474993)"><g><path d="M 37.671875 0 L 29.515625 0 L 26.5625 -9.046875 L 11.515625 -9.046875 L 8.5625 0 L 0.59375 0 L 14.15625 -39.265625 L 24.109375 -39.265625 Z M 18.671875 -31.078125 L 13.609375 -15.578125 L 24.40625 -15.578125 L 19.34375 -31.078125 Z M 18.671875 -31.078125 "/></g></g></g><g fill="#00a3e0" fill-opacity="1"><g transform="translate(175.085534, 198.474993)"><g><path d="M 12.625 0 L 5.109375 0 L 5.109375 -39.265625 L 13.984375 -39.265625 L 29.75 -13.96875 L 30.453125 -14.078125 L 30.453125 -39.265625 L 37.921875 -39.265625 L 37.921875 0 L 29.96875 0 L 13.296875 -27.015625 L 12.625 -26.90625 Z M 12.625 0 "/></g></g></g><g fill="#00a3e0" fill-opacity="1"><g transform="translate(218.141592, 198.474993)"><g/></g></g><g fill="#00a3e0" fill-opacity="1"><g transform="translate(231.111867, 198.474993)"><g/></g></g><g fill="#00a3e0" fill-opacity="1"><g transform="translate(244.082142, 198.474993)"><g/></g></g><g fill="#00a3e0" fill-opacity="1"><g transform="translate(257.059562, 198.474993)"><g><path d="M 12.859375 -17.234375 L 12.859375 -6.5 L 31.609375 -6.5 L 31.609375 0 L 5.109375 0 L 5.109375 -39.265625 L 31.171875 -39.265625 L 31.171875 -32.765625 L 12.859375 -32.765625 L 12.859375 -23.578125 L 28.875 -23.578125 L 28.875 -17.234375 Z M 12.859375 -17.234375 "/></g></g></g><g fill="#00a3e0" fill-opacity="1"><g transform="translate(290.814492, 198.474993)"><g><path d="M 12.859375 -39.265625 L 12.859375 -6.5 L 30.515625 -6.5 L 30.515625 0 L 5.109375 0 L 5.109375 -39.265625 Z M 12.859375 -39.265625 "/></g></g></g><g clip-path="url(#1b31a7c2d8)"><g clip-path="url(#bc21dcd94d)"><path fill="#00a3e0" d="M 221.222656 160.214844 L 253.011719 160.214844 L 253.011719 199.625 L 221.222656 199.625 Z M 221.222656 160.214844 " fill-opacity="1" fill-rule="nonzero"/></g></g><g clip-path="url(#53f8e5f0ee)"><path fill="#ffffff" d="M 227.003906 180.613281 L 247.101562 180.613281 L 247.101562 194.386719 L 227.003906 194.386719 Z M 227.003906 180.613281 " fill-opacity="1" fill-rule="nonzero"/></g><g clip-path="url(#deb2c0cc5b)"><path fill="#ffffff" d="M 227.148438 172.25 L 247.101562 172.25 L 247.101562 177.019531 L 227.148438 177.019531 Z M 227.148438 172.25 " fill-opacity="1" fill-rule="nonzero"/></g><g clip-path="url(#3fe32b49c7)"><g clip-path="url(#7d279f8482)"><path fill="#00a3e0" d="M 226.539062 210.265625 L 247.601562 210.265625 L 247.601562 231.328125 L 226.539062 231.328125 Z M 226.539062 210.265625 " fill-opacity="1" fill-rule="nonzero"/></g></g><g clip-path="url(#2cda6b5fa9)"><path fill="#00a3e0" d="M 233.238281 195.71875 L 241.042969 195.71875 L 241.042969 217.621094 L 233.238281 217.621094 Z M 233.238281 195.71875 " fill-opacity="1" fill-rule="nonzero"/></g><g clip-path="url(#7eef6677ed)"><g clip-path="url(#402faaf364)"><path fill="#00a3e0" d="M 225.09375 213.976562 L 249.433594 213.976562 L 249.433594 227.621094 L 225.09375 227.621094 Z M 225.09375 213.976562 " fill-opacity="1" fill-rule="nonzero"/></g></g><g clip-path="url(#26b47ba34b)"><path fill="#00a3e0" d="M 221.222656 160.214844 L 253.023438 160.214844 L 253.023438 168.464844 L 221.222656 168.464844 Z M 221.222656 160.214844 " fill-opacity="1" fill-rule="nonzero"/></g><g clip-path="url(#10d932ba3d)"><g clip-path="url(#c0d6b67523)"><path fill="#ffffff" d="M 230.320312 214.121094 L 243.820312 214.121094 L 243.820312 227.621094 L 230.320312 227.621094 Z M 230.320312 214.121094 " fill-opacity="1" fill-rule="nonzero"/></g></g><path stroke-linecap="butt" transform="matrix(0.755102, 0, 0, 0.75, 223.285831, 219.74562)" fill="none" stroke-linejoin="miter" d="M -0.000893108 1.500632 L 36.759457 1.500632 " stroke="#ffffff" stroke-width="3" stroke-opacity="1" stroke-miterlimit="4"/><g clip-path="url(#cfd1e6ad14)"><path fill="#ffffff" d="M 227.148438 163.730469 L 247.101562 163.730469 L 247.101562 168.5 L 227.148438 168.5 Z M 227.148438 163.730469 " fill-opacity="1" fill-rule="nonzero"/></g><g clip-path="url(#f6452b44d6)"><g clip-path="url(#46a12eb981)"><path fill="#00a3e0" d="M 234.019531 184.449219 L 240.121094 184.449219 L 240.121094 190.550781 L 234.019531 190.550781 Z M 234.019531 184.449219 " fill-opacity="1" fill-rule="nonzero"/></g></g></svg>